<svg id="visual" viewBox="0 0 1700 850" width="1700" height="850" xmlns="http://www.w3.org/2000/svg" xmlns:xlink="http://www.w3.org/1999/xlink" version="1.1"><g stroke-width="1" stroke-linejoin="bevel"><path d="M971 266.3L962 0L701 264.3Z" fill="#7d2979" stroke="#7d2979"></path><path d="M962 0L642 0L701 264.3Z" fill="#46225b" stroke="#46225b"></path><path d="M401 330.3L632 524.7L701 264.3Z" fill="#912a81" stroke="#912a81"></path><path d="M701 264.3L632 524.7L971 266.3Z" fill="#110c29" stroke="#110c29"></path><path d="M642 0L401 330.3L701 264.3Z" fill="#1b1436" stroke="#1b1436"></path><path d="M632 524.7L1047 568.7L971 266.3Z" fill="#281943" stroke="#281943"></path><path d="M971 266.3L1295 313.3L962 0Z" fill="#46225b" stroke="#46225b"></path><path d="M1047 568.7L1295 313.3L971 266.3Z" fill="#1b1436" stroke="#1b1436"></path><path d="M1295 313.3L1390 0L962 0Z" fill="#6a2870" stroke="#6a2870"></path><path d="M642 0L283 0L401 330.3Z" fill="#7d2979" stroke="#7d2979"></path><path d="M401 330.3L402 567.7L632 524.7Z" fill="#a62988" stroke="#a62988"></path><path d="M632 524.7L679 850L1047 568.7Z" fill="#572566" stroke="#572566"></path><path d="M0 498.7L402 567.7L401 330.3Z" fill="#46225b" stroke="#46225b"></path><path d="M1047 568.7L1312 553.7L1295 313.3Z" fill="#a62988" stroke="#a62988"></path><path d="M1700 297.3L1700 0L1390 0Z" fill="#281943" stroke="#281943"></path><path d="M402 567.7L679 850L632 524.7Z" fill="#04001c" stroke="#04001c"></path><path d="M1047 568.7L1357 850L1312 553.7Z" fill="#912a81" stroke="#912a81"></path><path d="M679 850L1003 850L1047 568.7Z" fill="#6a2870" stroke="#6a2870"></path><path d="M283 0L0 330.3L401 330.3Z" fill="#572566" stroke="#572566"></path><path d="M0 0L0 330.3L283 0Z" fill="#7d2979" stroke="#7d2979"></path><path d="M402 567.7L350 850L679 850Z" fill="#a62988" stroke="#a62988"></path><path d="M0 498.7L350 850L402 567.7Z" fill="#6a2870" stroke="#6a2870"></path><path d="M1700 297.3L1390 0L1295 313.3Z" fill="#7d2979" stroke="#7d2979"></path><path d="M1700 503.7L1700 297.3L1295 313.3Z" fill="#1b1436" stroke="#1b1436"></path><path d="M1700 503.7L1295 313.3L1312 553.7Z" fill="#a62988" stroke="#a62988"></path><path d="M1003 850L1357 850L1047 568.7Z" fill="#46225b" stroke="#46225b"></path><path d="M0 330.3L0 498.7L401 330.3Z" fill="#6a2870" stroke="#6a2870"></path><path d="M1357 850L1700 503.7L1312 553.7Z" fill="#361e4f" stroke="#361e4f"></path><path d="M0 498.7L0 850L350 850Z" fill="#281943" stroke="#281943"></path><path d="M1357 850L1700 850L1700 503.7Z" fill="#361e4f" stroke="#361e4f"></path></g></svg>